<svg width="82" height="23" viewBox="0 0 82 23" fill="none" xmlns="http://www.w3.org/2000/svg">
<rect width="82" height="23" rx="3" fill="black"/>
<rect x="1" y="1" width="80" height="21" rx="3" fill="white"/>
<path d="M10.7227 9.21875V12.7988H11.1562C11.4453 12.7988 11.6504 12.8555 11.7715 12.9688C11.8965 13.0781 11.959 13.2227 11.959 13.4023C11.959 13.5781 11.8965 13.7227 11.7715 13.8359C11.6504 13.9453 11.4453 14 11.1562 14H9.58008C9.29102 14 9.08594 13.9453 8.96484 13.8359C8.83984 13.7227 8.77734 13.5762 8.77734 13.3965C8.77734 13.2207 8.83789 13.0781 8.95898 12.9688C9.08008 12.8555 9.26758 12.7988 9.52148 12.7988V8.09961C9.31055 8.08008 9.15039 8.01562 9.04102 7.90625C8.93555 7.79688 8.88281 7.66016 8.88281 7.49609C8.88281 7.31641 8.94336 7.17188 9.06445 7.0625C9.18945 6.94922 9.39648 6.89258 9.68555 6.89258L11.0039 6.89844L12.6387 10.5137L14.2441 6.89258L15.5742 6.89844C15.8633 6.89844 16.0684 6.95312 16.1895 7.0625C16.3145 7.17188 16.377 7.31641 16.377 7.49609C16.377 7.66016 16.3223 7.79688 16.2129 7.90625C16.1035 8.01562 15.9453 8.08008 15.7383 8.09961V12.7988C15.9922 12.7988 16.1797 12.8555 16.3008 12.9688C16.4219 13.082 16.4824 13.2266 16.4824 13.4023C16.4824 13.5781 16.4199 13.7227 16.2949 13.8359C16.1738 13.9453 15.9688 14 15.6797 14H14.0977C13.8125 14 13.6074 13.9453 13.4824 13.8359C13.3613 13.7227 13.3008 13.5762 13.3008 13.3965C13.3008 13.2207 13.3613 13.0781 13.4824 12.9688C13.6074 12.8555 13.8125 12.7988 14.0977 12.7988H14.5371V9.21875L13.1602 12.3125H12.1172L10.7227 9.21875ZM20.2383 6.40039V7.67188H18.8086V6.40039H20.2383ZM20.4023 8.67969V12.7988H21.8438C22.1328 12.7988 22.3379 12.8555 22.459 12.9688C22.584 13.0781 22.6465 13.2227 22.6465 13.4023C22.6465 13.5781 22.584 13.7227 22.459 13.8359C22.3379 13.9453 22.1328 14 21.8438 14H17.7598C17.4707 14 17.2637 13.9453 17.1387 13.8359C17.0176 13.7227 16.957 13.5762 16.957 13.3965C16.957 13.2207 17.0176 13.0781 17.1387 12.9688C17.2637 12.8555 17.4707 12.7988 17.7598 12.7988H19.2012V9.88086H18.2344C17.9492 9.88086 17.7441 9.82617 17.6191 9.7168C17.4941 9.60352 17.4316 9.45703 17.4316 9.27734C17.4316 9.10156 17.4922 8.95898 17.6133 8.84961C17.7383 8.73633 17.9453 8.67969 18.2344 8.67969H20.4023ZM27.6152 6.40039V12.7988H29.0566C29.3457 12.7988 29.5508 12.8555 29.6719 12.9688C29.7969 13.0781 29.8594 13.2227 29.8594 13.4023C29.8594 13.5781 29.7969 13.7227 29.6719 13.8359C29.5508 13.9453 29.3457 14 29.0566 14H24.9727C24.6836 14 24.4766 13.9453 24.3516 13.8359C24.2305 13.7227 24.1699 13.5762 24.1699 13.3965C24.1699 13.2207 24.2305 13.0781 24.3516 12.9688C24.4766 12.8555 24.6836 12.7988 24.9727 12.7988H26.4141V7.60156H25.4473C25.1621 7.60156 24.957 7.54688 24.832 7.4375C24.707 7.32422 24.6445 7.17773 24.6445 6.99805C24.6445 6.82227 24.7051 6.67969 24.8262 6.57031C24.9512 6.45703 25.1582 6.40039 25.4473 6.40039H27.6152ZM34.8223 6.40039V12.7988H36.2637C36.5527 12.7988 36.7578 12.8555 36.8789 12.9688C37.0039 13.0781 37.0664 13.2227 37.0664 13.4023C37.0664 13.5781 37.0039 13.7227 36.8789 13.8359C36.7578 13.9453 36.5527 14 36.2637 14H32.1797C31.8906 14 31.6836 13.9453 31.5586 13.8359C31.4375 13.7227 31.377 13.5762 31.377 13.3965C31.377 13.2207 31.4375 13.0781 31.5586 12.9688C31.6836 12.8555 31.8906 12.7988 32.1797 12.7988H33.6211V7.60156H32.6543C32.3691 7.60156 32.1641 7.54688 32.0391 7.4375C31.9141 7.32422 31.8516 7.17773 31.8516 6.99805C31.8516 6.82227 31.9121 6.67969 32.0332 6.57031C32.1582 6.45703 32.3652 6.40039 32.6543 6.40039H34.8223ZM44.4434 11.9492H39.5156C39.6406 12.2617 39.8613 12.5137 40.1777 12.7051C40.498 12.8965 40.9297 12.9922 41.4727 12.9922C41.918 12.9922 42.5098 12.8965 43.248 12.7051C43.5527 12.627 43.7637 12.5879 43.8809 12.5879C44.041 12.5879 44.1758 12.6445 44.2852 12.7578C44.3945 12.8711 44.4492 13.0137 44.4492 13.1855C44.4492 13.3418 44.3906 13.4746 44.2734 13.584C44.1172 13.7285 43.7363 13.8672 43.1309 14C42.5254 14.1289 41.9434 14.1934 41.3848 14.1934C40.4238 14.1934 39.6543 13.9219 39.0762 13.3789C38.502 12.8359 38.2148 12.168 38.2148 11.375C38.2148 10.5312 38.5254 9.8457 39.1465 9.31836C39.7715 8.78711 40.4902 8.52148 41.3027 8.52148C41.791 8.52148 42.2383 8.60742 42.6445 8.7793C43.0547 8.95117 43.3594 9.13672 43.5586 9.33594C43.8398 9.625 44.0723 9.98242 44.2559 10.4082C44.3809 10.7051 44.4434 11.0488 44.4434 11.4395V11.9492ZM43.1133 10.748C42.9297 10.4043 42.6895 10.1484 42.3926 9.98047C42.0957 9.80859 41.7422 9.72266 41.332 9.72266C40.9258 9.72266 40.5742 9.80859 40.2773 9.98047C39.9805 10.1484 39.7383 10.4043 39.5508 10.748H43.1133ZM48.3867 8.67969V9.42969C48.8906 9.06641 49.2871 8.82422 49.5762 8.70312C49.8691 8.58203 50.1426 8.52148 50.3965 8.52148C50.7871 8.52148 51.166 8.66602 51.5332 8.95508C51.7832 9.15039 51.9082 9.34961 51.9082 9.55273C51.9082 9.72461 51.8477 9.87109 51.7266 9.99219C51.6094 10.1094 51.4668 10.168 51.2988 10.168C51.1504 10.168 50.9941 10.0938 50.8301 9.94531C50.666 9.79688 50.5195 9.72266 50.3906 9.72266C50.2227 9.72266 49.9707 9.82812 49.6348 10.0391C49.3027 10.25 48.8867 10.5664 48.3867 10.9883V12.7988H50.0977C50.3867 12.7988 50.5918 12.8555 50.7129 12.9688C50.8379 13.0781 50.9004 13.2227 50.9004 13.4023C50.9004 13.5781 50.8379 13.7227 50.7129 13.8359C50.5918 13.9453 50.3867 14 50.0977 14H46.4707C46.1816 14 45.9746 13.9453 45.8496 13.8359C45.7285 13.7227 45.668 13.5762 45.668 13.3965C45.668 13.2207 45.7285 13.0781 45.8496 12.9688C45.9746 12.8555 46.1816 12.7988 46.4707 12.7988H47.1855V9.88086H46.752C46.4629 9.88086 46.2559 9.82617 46.1309 9.7168C46.0098 9.60352 45.9492 9.45703 45.9492 9.27734C45.9492 9.10156 46.0098 8.95898 46.1309 8.84961C46.2559 8.73633 46.4629 8.67969 46.752 8.67969H48.3867Z" fill="black"/>
<path d="M53.1562 12.7988V8.09961C52.9023 8.0957 52.7148 8.03906 52.5938 7.92969C52.4727 7.81641 52.4121 7.67188 52.4121 7.49609C52.4121 7.31641 52.4727 7.17188 52.5938 7.0625C52.7188 6.94922 52.9258 6.89258 53.2148 6.89258L55.7285 6.89844C56.1191 6.89844 56.5 6.9707 56.8711 7.11523C57.2461 7.25977 57.5469 7.44336 57.7734 7.66602C57.9453 7.83398 58.123 8.06445 58.3066 8.35742C58.4941 8.65039 58.6348 8.94141 58.7285 9.23047C58.8223 9.51953 58.8691 9.87305 58.8691 10.291V10.8652C58.8691 11.373 58.7832 11.8242 58.6113 12.2188C58.4395 12.6094 58.2129 12.9297 57.9316 13.1797C57.6543 13.4258 57.3926 13.6074 57.1465 13.7246C56.7559 13.9082 56.25 14 55.6289 14H53.2148C52.9258 14 52.7188 13.9453 52.5938 13.8359C52.4727 13.7227 52.4121 13.5762 52.4121 13.3965C52.4121 13.2207 52.4727 13.0762 52.5938 12.9629C52.7188 12.8496 52.9062 12.7949 53.1562 12.7988ZM54.3574 12.7988H55.6348C56.1113 12.7988 56.4707 12.7305 56.7129 12.5938C57.0293 12.4141 57.2676 12.1855 57.4277 11.9082C57.5879 11.6309 57.668 11.2715 57.668 10.8301V10.2617C57.668 9.88281 57.5957 9.55078 57.4512 9.26562C57.2246 8.82031 56.9688 8.51562 56.6836 8.35156C56.4023 8.18359 56.0488 8.09961 55.623 8.09961H54.3574V12.7988ZM66.0645 11.9492H61.1367C61.2617 12.2617 61.4824 12.5137 61.7988 12.7051C62.1191 12.8965 62.5508 12.9922 63.0938 12.9922C63.5391 12.9922 64.1309 12.8965 64.8691 12.7051C65.1738 12.627 65.3848 12.5879 65.502 12.5879C65.6621 12.5879 65.7969 12.6445 65.9062 12.7578C66.0156 12.8711 66.0703 13.0137 66.0703 13.1855C66.0703 13.3418 66.0117 13.4746 65.8945 13.584C65.7383 13.7285 65.3574 13.8672 64.752 14C64.1465 14.1289 63.5645 14.1934 63.0059 14.1934C62.0449 14.1934 61.2754 13.9219 60.6973 13.3789C60.123 12.8359 59.8359 12.168 59.8359 11.375C59.8359 10.5312 60.1465 9.8457 60.7676 9.31836C61.3926 8.78711 62.1113 8.52148 62.9238 8.52148C63.4121 8.52148 63.8594 8.60742 64.2656 8.7793C64.6758 8.95117 64.9805 9.13672 65.1797 9.33594C65.4609 9.625 65.6934 9.98242 65.877 10.4082C66.002 10.7051 66.0645 11.0488 66.0645 11.4395V11.9492ZM64.7344 10.748C64.5508 10.4043 64.3105 10.1484 64.0137 9.98047C63.7168 9.80859 63.3633 9.72266 62.9531 9.72266C62.5469 9.72266 62.1953 9.80859 61.8984 9.98047C61.6016 10.1484 61.3594 10.4043 61.1719 10.748H64.7344ZM70.2656 12.541L71.5605 9.88086C71.2402 9.88086 71.0352 9.85352 70.9453 9.79883C70.75 9.67773 70.6523 9.50391 70.6523 9.27734C70.6523 9.10156 70.7129 8.95898 70.834 8.84961C70.959 8.73633 71.166 8.67969 71.4551 8.67969H73.1016C73.3906 8.67969 73.5957 8.73633 73.7168 8.84961C73.8418 8.95898 73.9043 9.10352 73.9043 9.2832C73.9043 9.45898 73.8418 9.60352 73.7168 9.7168C73.5957 9.82617 73.3906 9.88086 73.1016 9.88086H72.9023L70.8926 14H69.6387L67.6289 9.88086H67.459C67.1699 9.88086 66.9629 9.82617 66.8379 9.7168C66.7168 9.60352 66.6562 9.45703 66.6562 9.27734C66.6562 9.10156 66.7168 8.95898 66.8379 8.84961C66.9629 8.73633 67.1699 8.67969 67.459 8.67969H69.0703C69.3555 8.67969 69.5586 8.73633 69.6797 8.84961C69.8047 8.95898 69.8672 9.10352 69.8672 9.2832C69.8672 9.50586 69.7734 9.67578 69.5859 9.79297C69.4922 9.85156 69.2832 9.88086 68.959 9.88086L70.2656 12.541Z" fill="#FF0000"/>
<path d="M9.92285 17.8477C9.87012 17.9102 9.82715 17.9502 9.79395 17.9678C9.7627 17.9854 9.72363 17.9941 9.67676 17.9941C9.58496 17.9941 9.51074 17.9639 9.4541 17.9033C9.39941 17.8408 9.37207 17.7383 9.37207 17.5957V17.1914C9.37207 17.0469 9.39941 16.9443 9.4541 16.8838C9.51074 16.8213 9.58496 16.79 9.67676 16.79C9.74707 16.79 9.80566 16.8086 9.85254 16.8457C9.90137 16.8828 9.93848 16.9453 9.96387 17.0332C9.98926 17.1191 10.0156 17.1777 10.043 17.209C10.0996 17.2695 10.2002 17.3311 10.3447 17.3936C10.4893 17.4561 10.6475 17.4873 10.8193 17.4873C11.0869 17.4873 11.3066 17.4248 11.4785 17.2998C11.5879 17.2236 11.6426 17.1299 11.6426 17.0186C11.6426 16.9443 11.6162 16.875 11.5635 16.8105C11.5107 16.7441 11.4248 16.6895 11.3057 16.6465C11.2275 16.6172 11.0527 16.5771 10.7812 16.5264C10.4531 16.4658 10.2051 16.3926 10.0371 16.3066C9.86914 16.2207 9.73633 16.0996 9.63867 15.9434C9.54102 15.7871 9.49219 15.6182 9.49219 15.4365C9.49219 15.1494 9.6123 14.8984 9.85254 14.6836C10.0928 14.4668 10.4053 14.3584 10.79 14.3584C10.9443 14.3584 11.0869 14.376 11.2178 14.4111C11.3506 14.4443 11.4707 14.4961 11.5781 14.5664C11.6562 14.4902 11.7344 14.4521 11.8125 14.4521C11.9004 14.4521 11.9717 14.4834 12.0264 14.5459C12.083 14.6064 12.1113 14.708 12.1113 14.8506V15.3018C12.1113 15.4463 12.083 15.5498 12.0264 15.6123C11.9717 15.6729 11.9004 15.7031 11.8125 15.7031C11.7383 15.7031 11.6738 15.6807 11.6191 15.6357C11.5762 15.6025 11.5439 15.5361 11.5225 15.4365C11.501 15.3369 11.4736 15.2656 11.4404 15.2227C11.3838 15.1484 11.2988 15.0859 11.1855 15.0352C11.0723 14.9844 10.9414 14.959 10.793 14.959C10.5762 14.959 10.4043 15.0098 10.2773 15.1113C10.1523 15.2109 10.0898 15.3154 10.0898 15.4248C10.0898 15.499 10.1152 15.5713 10.166 15.6416C10.2188 15.71 10.2949 15.7637 10.3945 15.8027C10.4609 15.8301 10.6475 15.874 10.9541 15.9346C11.2627 15.9951 11.499 16.0615 11.6631 16.1338C11.8291 16.2061 11.9668 16.3193 12.0762 16.4736C12.1855 16.6279 12.2402 16.8115 12.2402 17.0244C12.2402 17.3213 12.1357 17.5586 11.9268 17.7363C11.6494 17.9707 11.2959 18.0879 10.8662 18.0879C10.7002 18.0879 10.5381 18.0674 10.3799 18.0264C10.2236 17.9873 10.0713 17.9277 9.92285 17.8477ZM15.9639 16.7197C15.9639 16.9502 15.8994 17.1738 15.7705 17.3906C15.6436 17.6055 15.4531 17.7773 15.1992 17.9062C14.9473 18.0332 14.6836 18.0967 14.4082 18.0967C14.1348 18.0967 13.873 18.0342 13.623 17.9092C13.373 17.7822 13.1826 17.6104 13.0518 17.3936C12.9209 17.1768 12.8555 16.9502 12.8555 16.7139C12.8555 16.4736 12.9219 16.2383 13.0547 16.0078C13.1875 15.7754 13.3779 15.5928 13.626 15.46C13.876 15.3271 14.1367 15.2607 14.4082 15.2607C14.6816 15.2607 14.9443 15.3291 15.1963 15.4658C15.4502 15.6006 15.6416 15.7832 15.7705 16.0137C15.8994 16.2422 15.9639 16.4775 15.9639 16.7197ZM15.3633 16.7227C15.3633 16.5293 15.2939 16.3516 15.1553 16.1895C14.9658 15.9707 14.7168 15.8613 14.4082 15.8613C14.1367 15.8613 13.9102 15.9482 13.7285 16.1221C13.5469 16.2959 13.4561 16.4971 13.4561 16.7256C13.4561 16.9131 13.5479 17.0889 13.7314 17.2529C13.915 17.415 14.1406 17.4961 14.4082 17.4961C14.6777 17.4961 14.9043 17.415 15.0879 17.2529C15.2715 17.0889 15.3633 16.9121 15.3633 16.7227ZM18.0029 15.9404V17.3994H18.8584C19.0029 17.3994 19.1055 17.4277 19.166 17.4844C19.2285 17.5391 19.2598 17.6113 19.2598 17.7012C19.2598 17.7891 19.2285 17.8613 19.166 17.918C19.1055 17.9727 19.0029 18 18.8584 18H17.0449C16.9004 18 16.7969 17.9727 16.7344 17.918C16.6738 17.8613 16.6436 17.7881 16.6436 17.6982C16.6436 17.6104 16.6738 17.5391 16.7344 17.4844C16.7969 17.4277 16.9004 17.3994 17.0449 17.3994H17.4023V15.9404H17.1152C16.9707 15.9404 16.8672 15.9131 16.8047 15.8584C16.7441 15.8018 16.7139 15.7285 16.7139 15.6387C16.7139 15.5508 16.7441 15.4795 16.8047 15.4248C16.8672 15.3682 16.9707 15.3398 17.1152 15.3398H17.4023V15.1113C17.4023 14.8496 17.5 14.6328 17.6953 14.4609C17.8926 14.2871 18.1777 14.2002 18.5508 14.2002C18.7168 14.2002 18.9082 14.2158 19.125 14.2471C19.3438 14.2764 19.4834 14.3184 19.5439 14.373C19.6064 14.4277 19.6377 14.498 19.6377 14.584C19.6377 14.6758 19.6104 14.751 19.5557 14.8096C19.501 14.8662 19.4336 14.8945 19.3535 14.8945C19.3164 14.8945 19.2607 14.8877 19.1865 14.874C18.9385 14.8252 18.7188 14.8008 18.5273 14.8008C18.3281 14.8008 18.1904 14.8311 18.1143 14.8916C18.04 14.9502 18.0029 15.0234 18.0029 15.1113V15.3398H18.9287C19.0732 15.3398 19.1758 15.3682 19.2363 15.4248C19.2988 15.4795 19.3301 15.5518 19.3301 15.6416C19.3301 15.7295 19.2988 15.8018 19.2363 15.8584C19.1758 15.9131 19.0732 15.9404 18.9287 15.9404H18.0029ZM21.4629 15.9404V17.1445C21.4629 17.2734 21.4893 17.3584 21.542 17.3994C21.624 17.4639 21.7705 17.4961 21.9814 17.4961C22.2881 17.4961 22.5713 17.4307 22.8311 17.2998C22.9307 17.249 23.0088 17.2236 23.0654 17.2236C23.1436 17.2236 23.2109 17.2529 23.2676 17.3115C23.3262 17.3701 23.3555 17.4414 23.3555 17.5254C23.3555 17.6035 23.3242 17.6709 23.2617 17.7275C23.166 17.8193 22.9766 17.9043 22.6934 17.9824C22.4121 18.0586 22.1748 18.0967 21.9814 18.0967C21.6084 18.0967 21.3281 18.0166 21.1406 17.8564C20.9551 17.6943 20.8623 17.4961 20.8623 17.2617V15.9404H20.6455C20.501 15.9404 20.3975 15.9131 20.335 15.8584C20.2744 15.8018 20.2441 15.7285 20.2441 15.6387C20.2441 15.5508 20.2744 15.4795 20.335 15.4248C20.3975 15.3682 20.501 15.3398 20.6455 15.3398H20.8623V14.7979C20.8623 14.6533 20.8896 14.5508 20.9443 14.4902C21.001 14.4277 21.0742 14.3965 21.1641 14.3965C21.252 14.3965 21.3232 14.4277 21.3779 14.4902C21.4346 14.5508 21.4629 14.6533 21.4629 14.7979V15.3398H22.5732C22.7178 15.3398 22.8203 15.3682 22.8809 15.4248C22.9434 15.4795 22.9746 15.5518 22.9746 15.6416C22.9746 15.7295 22.9434 15.8018 22.8809 15.8584C22.8203 15.9131 22.7178 15.9404 22.5732 15.9404H21.4629ZM25.2188 16.8926L24.8027 18H24.2373L23.7334 15.9404C23.624 15.9346 23.541 15.9043 23.4844 15.8496C23.4297 15.793 23.4023 15.7227 23.4023 15.6387C23.4023 15.5508 23.4326 15.4795 23.4932 15.4248C23.5557 15.3682 23.6592 15.3398 23.8037 15.3398H24.3633C24.5078 15.3398 24.6104 15.3682 24.6709 15.4248C24.7334 15.4795 24.7646 15.5518 24.7646 15.6416C24.7646 15.7314 24.7295 15.8076 24.6592 15.8701C24.6064 15.917 24.5029 15.9404 24.3486 15.9404L24.5771 16.8926L24.9492 15.917H25.4824L25.8574 16.8926L26.0918 15.9404C25.9434 15.9404 25.8457 15.9258 25.7988 15.8965C25.7051 15.8359 25.6582 15.75 25.6582 15.6387C25.6582 15.5508 25.6885 15.4795 25.749 15.4248C25.8115 15.3682 25.915 15.3398 26.0596 15.3398H26.625C26.7695 15.3398 26.8721 15.3682 26.9326 15.4248C26.9951 15.4795 27.0264 15.5518 27.0264 15.6416C27.0264 15.7217 26.999 15.79 26.9443 15.8467C26.8916 15.9014 26.8125 15.9326 26.707 15.9404L26.2148 18H25.6582L25.2188 16.8926ZM29.3584 18V17.8594C29.208 17.9395 29.042 17.999 28.8604 18.0381C28.6787 18.0791 28.5137 18.0996 28.3652 18.0996C28.043 18.0996 27.7812 18.0146 27.5801 17.8447C27.3789 17.6729 27.2783 17.4834 27.2783 17.2764C27.2783 17.0244 27.4062 16.791 27.6621 16.5762C27.9199 16.3594 28.2754 16.251 28.7285 16.251C28.9102 16.251 29.1201 16.2705 29.3584 16.3096V16.166C29.3584 16.0762 29.3193 16.0029 29.2412 15.9463C29.165 15.8896 29.0186 15.8613 28.8018 15.8613C28.624 15.8613 28.3936 15.8965 28.1104 15.9668C28.0049 15.9922 27.9229 16.0049 27.8643 16.0049C27.7842 16.0049 27.7158 15.9766 27.6592 15.9199C27.6045 15.8613 27.5771 15.7871 27.5771 15.6973C27.5771 15.6465 27.5869 15.6025 27.6064 15.5654C27.626 15.5283 27.6533 15.499 27.6885 15.4775C27.7236 15.4541 27.7969 15.4268 27.9082 15.3955C28.0566 15.3545 28.208 15.3223 28.3623 15.2988C28.5166 15.2734 28.6562 15.2607 28.7812 15.2607C29.1543 15.2607 29.4434 15.3418 29.6484 15.5039C29.8555 15.6641 29.959 15.8838 29.959 16.1631V17.3994H30.0615C30.2061 17.3994 30.3086 17.4277 30.3691 17.4844C30.4316 17.5391 30.4629 17.6113 30.4629 17.7012C30.4629 17.7891 30.4316 17.8613 30.3691 17.918C30.3086 17.9727 30.2061 18 30.0615 18H29.3584ZM29.3584 16.9248C29.1182 16.8779 28.8965 16.8545 28.6934 16.8545C28.4492 16.8545 28.2393 16.9141 28.0635 17.0332C27.9541 17.1094 27.8994 17.1865 27.8994 17.2646C27.8994 17.3213 27.9258 17.3672 27.9785 17.4023C28.0762 17.4668 28.21 17.499 28.3799 17.499C28.5244 17.499 28.6875 17.4707 28.8691 17.4141C29.0527 17.3574 29.2158 17.2803 29.3584 17.1826V16.9248ZM32.2969 15.3398V15.7148C32.5488 15.5332 32.7471 15.4121 32.8916 15.3516C33.0381 15.291 33.1748 15.2607 33.3018 15.2607C33.4971 15.2607 33.6865 15.333 33.8701 15.4775C33.9951 15.5752 34.0576 15.6748 34.0576 15.7764C34.0576 15.8623 34.0273 15.9355 33.9668 15.9961C33.9082 16.0547 33.8369 16.084 33.7529 16.084C33.6787 16.084 33.6006 16.0469 33.5186 15.9727C33.4365 15.8984 33.3633 15.8613 33.2988 15.8613C33.2148 15.8613 33.0889 15.9141 32.9209 16.0195C32.7549 16.125 32.5469 16.2832 32.2969 16.4941V17.3994H33.1523C33.2969 17.3994 33.3994 17.4277 33.46 17.4844C33.5225 17.5391 33.5537 17.6113 33.5537 17.7012C33.5537 17.7891 33.5225 17.8613 33.46 17.918C33.3994 17.9727 33.2969 18 33.1523 18H31.3389C31.1943 18 31.0908 17.9727 31.0283 17.918C30.9678 17.8613 30.9375 17.7881 30.9375 17.6982C30.9375 17.6104 30.9678 17.5391 31.0283 17.4844C31.0908 17.4277 31.1943 17.3994 31.3389 17.3994H31.6963V15.9404H31.4795C31.335 15.9404 31.2314 15.9131 31.1689 15.8584C31.1084 15.8018 31.0781 15.7285 31.0781 15.6387C31.0781 15.5508 31.1084 15.4795 31.1689 15.4248C31.2314 15.3682 31.335 15.3398 31.4795 15.3398H32.2969ZM37.5322 16.9746H35.0684C35.1309 17.1309 35.2412 17.2568 35.3994 17.3525C35.5596 17.4482 35.7754 17.4961 36.0469 17.4961C36.2695 17.4961 36.5654 17.4482 36.9346 17.3525C37.0869 17.3135 37.1924 17.2939 37.251 17.2939C37.3311 17.2939 37.3984 17.3223 37.4531 17.3789C37.5078 17.4355 37.5352 17.5068 37.5352 17.5928C37.5352 17.6709 37.5059 17.7373 37.4473 17.792C37.3691 17.8643 37.1787 17.9336 36.876 18C36.5732 18.0645 36.2822 18.0967 36.0029 18.0967C35.5225 18.0967 35.1377 17.9609 34.8486 17.6895C34.5615 17.418 34.418 17.084 34.418 16.6875C34.418 16.2656 34.5732 15.9229 34.8838 15.6592C35.1963 15.3936 35.5557 15.2607 35.9619 15.2607C36.2061 15.2607 36.4297 15.3037 36.6328 15.3896C36.8379 15.4756 36.9902 15.5684 37.0898 15.668C37.2305 15.8125 37.3467 15.9912 37.4385 16.2041C37.501 16.3525 37.5322 16.5244 37.5322 16.7197V16.9746ZM36.8672 16.374C36.7754 16.2021 36.6553 16.0742 36.5068 15.9902C36.3584 15.9043 36.1816 15.8613 35.9766 15.8613C35.7734 15.8613 35.5977 15.9043 35.4492 15.9902C35.3008 16.0742 35.1797 16.2021 35.0859 16.374H36.8672ZM41.8887 17.3994V15.0498C41.7617 15.0479 41.668 15.0195 41.6074 14.9648C41.5469 14.9082 41.5166 14.8359 41.5166 14.748C41.5166 14.6582 41.5469 14.5859 41.6074 14.5312C41.6699 14.4746 41.7734 14.4463 41.918 14.4463L43.1748 14.4492C43.3701 14.4492 43.5605 14.4854 43.7461 14.5576C43.9336 14.6299 44.084 14.7217 44.1973 14.833C44.2832 14.917 44.3721 15.0322 44.4639 15.1787C44.5576 15.3252 44.6279 15.4707 44.6748 15.6152C44.7217 15.7598 44.7451 15.9365 44.7451 16.1455V16.4326C44.7451 16.6865 44.7021 16.9121 44.6162 17.1094C44.5303 17.3047 44.417 17.4648 44.2764 17.5898C44.1377 17.7129 44.0068 17.8037 43.8838 17.8623C43.6885 17.9541 43.4355 18 43.125 18H41.918C41.7734 18 41.6699 17.9727 41.6074 17.918C41.5469 17.8613 41.5166 17.7881 41.5166 17.6982C41.5166 17.6104 41.5469 17.5381 41.6074 17.4814C41.6699 17.4248 41.7637 17.3975 41.8887 17.3994ZM42.4893 17.3994H43.1279C43.3662 17.3994 43.5459 17.3652 43.667 17.2969C43.8252 17.207 43.9443 17.0928 44.0244 16.9541C44.1045 16.8154 44.1445 16.6357 44.1445 16.415V16.1309C44.1445 15.9414 44.1084 15.7754 44.0361 15.6328C43.9229 15.4102 43.7949 15.2578 43.6523 15.1758C43.5117 15.0918 43.335 15.0498 43.1221 15.0498H42.4893V17.3994ZM48.3428 16.9746H45.8789C45.9414 17.1309 46.0518 17.2568 46.21 17.3525C46.3701 17.4482 46.5859 17.4961 46.8574 17.4961C47.0801 17.4961 47.376 17.4482 47.7451 17.3525C47.8975 17.3135 48.0029 17.2939 48.0615 17.2939C48.1416 17.2939 48.209 17.3223 48.2637 17.3789C48.3184 17.4355 48.3457 17.5068 48.3457 17.5928C48.3457 17.6709 48.3164 17.7373 48.2578 17.792C48.1797 17.8643 47.9893 17.9336 47.6865 18C47.3838 18.0645 47.0928 18.0967 46.8135 18.0967C46.333 18.0967 45.9482 17.9609 45.6592 17.6895C45.3721 17.418 45.2285 17.084 45.2285 16.6875C45.2285 16.2656 45.3838 15.9229 45.6943 15.6592C46.0068 15.3936 46.3662 15.2607 46.7725 15.2607C47.0166 15.2607 47.2402 15.3037 47.4434 15.3896C47.6484 15.4756 47.8008 15.5684 47.9004 15.668C48.041 15.8125 48.1572 15.9912 48.249 16.2041C48.3115 16.3525 48.3428 16.5244 48.3428 16.7197V16.9746ZM47.6777 16.374C47.5859 16.2021 47.4658 16.0742 47.3174 15.9902C47.1689 15.9043 46.9922 15.8613 46.7871 15.8613C46.584 15.8613 46.4082 15.9043 46.2598 15.9902C46.1113 16.0742 45.9902 16.2021 45.8965 16.374H47.6777ZM50.4434 17.2705L51.0908 15.9404C50.9307 15.9404 50.8281 15.9268 50.7832 15.8994C50.6855 15.8389 50.6367 15.752 50.6367 15.6387C50.6367 15.5508 50.667 15.4795 50.7275 15.4248C50.79 15.3682 50.8936 15.3398 51.0381 15.3398H51.8613C52.0059 15.3398 52.1084 15.3682 52.1689 15.4248C52.2314 15.4795 52.2627 15.5518 52.2627 15.6416C52.2627 15.7295 52.2314 15.8018 52.1689 15.8584C52.1084 15.9131 52.0059 15.9404 51.8613 15.9404H51.7617L50.7568 18H50.1299L49.125 15.9404H49.04C48.8955 15.9404 48.792 15.9131 48.7295 15.8584C48.6689 15.8018 48.6387 15.7285 48.6387 15.6387C48.6387 15.5508 48.6689 15.4795 48.7295 15.4248C48.792 15.3682 48.8955 15.3398 49.04 15.3398H49.8457C49.9883 15.3398 50.0898 15.3682 50.1504 15.4248C50.2129 15.4795 50.2441 15.5518 50.2441 15.6416C50.2441 15.7529 50.1973 15.8379 50.1035 15.8965C50.0566 15.9258 49.9521 15.9404 49.79 15.9404L50.4434 17.2705ZM55.5498 16.9746H53.0859C53.1484 17.1309 53.2588 17.2568 53.417 17.3525C53.5771 17.4482 53.793 17.4961 54.0645 17.4961C54.2871 17.4961 54.583 17.4482 54.9521 17.3525C55.1045 17.3135 55.21 17.2939 55.2686 17.2939C55.3486 17.2939 55.416 17.3223 55.4707 17.3789C55.5254 17.4355 55.5527 17.5068 55.5527 17.5928C55.5527 17.6709 55.5234 17.7373 55.4648 17.792C55.3867 17.8643 55.1963 17.9336 54.8936 18C54.5908 18.0645 54.2998 18.0967 54.0205 18.0967C53.54 18.0967 53.1553 17.9609 52.8662 17.6895C52.5791 17.418 52.4355 17.084 52.4355 16.6875C52.4355 16.2656 52.5908 15.9229 52.9014 15.6592C53.2139 15.3936 53.5732 15.2607 53.9795 15.2607C54.2236 15.2607 54.4473 15.3037 54.6504 15.3896C54.8555 15.4756 55.0078 15.5684 55.1074 15.668C55.248 15.8125 55.3643 15.9912 55.4561 16.2041C55.5186 16.3525 55.5498 16.5244 55.5498 16.7197V16.9746ZM54.8848 16.374C54.793 16.2021 54.6729 16.0742 54.5244 15.9902C54.376 15.9043 54.1992 15.8613 53.9941 15.8613C53.791 15.8613 53.6152 15.9043 53.4668 15.9902C53.3184 16.0742 53.1973 16.2021 53.1035 16.374H54.8848ZM57.9463 14.2002V17.3994H58.667C58.8115 17.3994 58.9141 17.4277 58.9746 17.4844C59.0371 17.5391 59.0684 17.6113 59.0684 17.7012C59.0684 17.7891 59.0371 17.8613 58.9746 17.918C58.9141 17.9727 58.8115 18 58.667 18H56.625C56.4805 18 56.377 17.9727 56.3145 17.918C56.2539 17.8613 56.2236 17.7881 56.2236 17.6982C56.2236 17.6104 56.2539 17.5391 56.3145 17.4844C56.377 17.4277 56.4805 17.3994 56.625 17.3994H57.3457V14.8008H56.8623C56.7197 14.8008 56.6172 14.7734 56.5547 14.7188C56.4922 14.6621 56.4609 14.5889 56.4609 14.499C56.4609 14.4111 56.4912 14.3398 56.5518 14.2852C56.6143 14.2285 56.7178 14.2002 56.8623 14.2002H57.9463ZM62.8096 16.7197C62.8096 16.9502 62.7451 17.1738 62.6162 17.3906C62.4893 17.6055 62.2988 17.7773 62.0449 17.9062C61.793 18.0332 61.5293 18.0967 61.2539 18.0967C60.9805 18.0967 60.7188 18.0342 60.4688 17.9092C60.2188 17.7822 60.0283 17.6104 59.8975 17.3936C59.7666 17.1768 59.7012 16.9502 59.7012 16.7139C59.7012 16.4736 59.7676 16.2383 59.9004 16.0078C60.0332 15.7754 60.2236 15.5928 60.4717 15.46C60.7217 15.3271 60.9824 15.2607 61.2539 15.2607C61.5273 15.2607 61.79 15.3291 62.042 15.4658C62.2959 15.6006 62.4873 15.7832 62.6162 16.0137C62.7451 16.2422 62.8096 16.4775 62.8096 16.7197ZM62.209 16.7227C62.209 16.5293 62.1396 16.3516 62.001 16.1895C61.8115 15.9707 61.5625 15.8613 61.2539 15.8613C60.9824 15.8613 60.7559 15.9482 60.5742 16.1221C60.3926 16.2959 60.3018 16.4971 60.3018 16.7256C60.3018 16.9131 60.3936 17.0889 60.5771 17.2529C60.7607 17.415 60.9863 17.4961 61.2539 17.4961C61.5234 17.4961 61.75 17.415 61.9336 17.2529C62.1172 17.0889 62.209 16.9121 62.209 16.7227ZM64.1074 17.6689V18.6533H64.4678C64.6123 18.6533 64.7148 18.6807 64.7754 18.7354C64.8379 18.792 64.8691 18.8652 64.8691 18.9551C64.8691 19.043 64.8379 19.1143 64.7754 19.1689C64.7148 19.2256 64.6123 19.2539 64.4678 19.2539H63.4043C63.2598 19.2539 63.1562 19.2256 63.0938 19.1689C63.0332 19.1143 63.0029 19.043 63.0029 18.9551C63.0029 18.8652 63.0342 18.792 63.0967 18.7354C63.1592 18.6807 63.2617 18.6533 63.4043 18.6533H63.5068V15.9404H63.4043C63.2598 15.9404 63.1562 15.9131 63.0938 15.8584C63.0332 15.8018 63.0029 15.7285 63.0029 15.6387C63.0029 15.5508 63.0332 15.4795 63.0938 15.4248C63.1562 15.3682 63.2598 15.3398 63.4043 15.3398H64.1074V15.5449C64.248 15.4492 64.3936 15.3779 64.5439 15.3311C64.6943 15.2842 64.8486 15.2607 65.0068 15.2607C65.417 15.2607 65.7666 15.4004 66.0557 15.6797C66.3447 15.957 66.4893 16.2754 66.4893 16.6348C66.4893 17.0312 66.3184 17.3584 65.9766 17.6162C65.6914 17.8311 65.3701 17.9385 65.0127 17.9385C64.8584 17.9385 64.7061 17.916 64.5557 17.8711C64.4053 17.8262 64.2559 17.7588 64.1074 17.6689ZM65.8887 16.6377C65.8887 16.5537 65.8555 16.4473 65.7891 16.3184C65.7227 16.1875 65.6201 16.0791 65.4814 15.9932C65.3447 15.9053 65.1836 15.8613 64.998 15.8613C64.6992 15.8613 64.4619 15.9736 64.2861 16.1982C64.167 16.3525 64.1074 16.501 64.1074 16.6436C64.1074 16.8037 64.1924 16.96 64.3623 17.1123C64.5342 17.2627 64.7461 17.3379 64.998 17.3379C65.252 17.3379 65.4639 17.2627 65.6338 17.1123C65.8037 16.9619 65.8887 16.8037 65.8887 16.6377ZM69.9639 16.9746H67.5C67.5625 17.1309 67.6729 17.2568 67.8311 17.3525C67.9912 17.4482 68.207 17.4961 68.4785 17.4961C68.7012 17.4961 68.9971 17.4482 69.3662 17.3525C69.5186 17.3135 69.624 17.2939 69.6826 17.2939C69.7627 17.2939 69.8301 17.3223 69.8848 17.3789C69.9395 17.4355 69.9668 17.5068 69.9668 17.5928C69.9668 17.6709 69.9375 17.7373 69.8789 17.792C69.8008 17.8643 69.6104 17.9336 69.3076 18C69.0049 18.0645 68.7139 18.0967 68.4346 18.0967C67.9541 18.0967 67.5693 17.9609 67.2803 17.6895C66.9932 17.418 66.8496 17.084 66.8496 16.6875C66.8496 16.2656 67.0049 15.9229 67.3154 15.6592C67.6279 15.3936 67.9873 15.2607 68.3936 15.2607C68.6377 15.2607 68.8613 15.3037 69.0645 15.3896C69.2695 15.4756 69.4219 15.5684 69.5215 15.668C69.6621 15.8125 69.7783 15.9912 69.8701 16.2041C69.9326 16.3525 69.9639 16.5244 69.9639 16.7197V16.9746ZM69.2988 16.374C69.207 16.2021 69.0869 16.0742 68.9385 15.9902C68.79 15.9043 68.6133 15.8613 68.4082 15.8613C68.2051 15.8613 68.0293 15.9043 67.8809 15.9902C67.7324 16.0742 67.6113 16.2021 67.5176 16.374H69.2988ZM71.9355 15.3398V15.7148C72.1875 15.5332 72.3857 15.4121 72.5303 15.3516C72.6768 15.291 72.8135 15.2607 72.9404 15.2607C73.1357 15.2607 73.3252 15.333 73.5088 15.4775C73.6338 15.5752 73.6963 15.6748 73.6963 15.7764C73.6963 15.8623 73.666 15.9355 73.6055 15.9961C73.5469 16.0547 73.4756 16.084 73.3916 16.084C73.3174 16.084 73.2393 16.0469 73.1572 15.9727C73.0752 15.8984 73.002 15.8613 72.9375 15.8613C72.8535 15.8613 72.7275 15.9141 72.5596 16.0195C72.3936 16.125 72.1855 16.2832 71.9355 16.4941V17.3994H72.791C72.9355 17.3994 73.0381 17.4277 73.0986 17.4844C73.1611 17.5391 73.1924 17.6113 73.1924 17.7012C73.1924 17.7891 73.1611 17.8613 73.0986 17.918C73.0381 17.9727 72.9355 18 72.791 18H70.9775C70.833 18 70.7295 17.9727 70.667 17.918C70.6064 17.8613 70.5762 17.7881 70.5762 17.6982C70.5762 17.6104 70.6064 17.5391 70.667 17.4844C70.7295 17.4277 70.833 17.3994 70.9775 17.3994H71.335V15.9404H71.1182C70.9736 15.9404 70.8701 15.9131 70.8076 15.8584C70.7471 15.8018 70.7168 15.7285 70.7168 15.6387C70.7168 15.5508 70.7471 15.4795 70.8076 15.4248C70.8701 15.3682 70.9736 15.3398 71.1182 15.3398H71.9355Z" fill="#606060"/>
</svg>
